<svg width="1920" height="585" viewBox="0 0 1920 585" fill="none" xmlns="http://www.w3.org/2000/svg">
<path fill-rule="evenodd" clip-rule="evenodd" d="M-472 694.978L-352.667 662.213C-233.333 629.447 5.33334 563.915 244 463.894C482.667 363.872 721.333 232.809 960 265.575C1198.67 298.341 1437.33 496.659 1676 481.139C1914.67 463.894 2153.33 232.809 2272.67 115.542L2392 0V795H2272.67C2153.33 795 1914.67 795 1676 795C1437.33 795 1198.67 795 960 795C721.333 795 482.667 795 244 795C5.33334 795 -233.333 795 -352.667 795H-472V694.978Z" fill="#4269E2"/>
</svg>
